<svg width="49" height="46" viewBox="0 0 49 46" fill="none" xmlns="http://www.w3.org/2000/svg">
<g id="&#240;&#159;&#166;&#134; icon &#34;book 1&#34;">
<g id="Group">
<path id="Vector" d="M46.9918 33.6687V6.51626C46.9918 3.81675 44.7872 1.81461 42.1102 2.03957H41.9753C37.2511 2.4445 30.0749 4.85156 26.0706 7.37111L25.6882 7.61856C25.0358 8.02349 23.956 8.02349 23.3036 7.61856L22.7412 7.28112C18.737 4.78408 11.5833 2.39951 6.85912 2.01708C4.1821 1.79212 2 3.81675 2 6.49376V33.6687C2 35.8284 3.75468 37.853 5.91429 38.1229L6.56667 38.2129C11.4483 38.8653 18.9844 41.3399 23.3036 43.7019L23.3936 43.7469C24.001 44.0844 24.9683 44.0844 25.5532 43.7469C29.8724 41.3624 37.4311 38.8653 42.3352 38.2129L43.0776 38.1229C45.2372 37.853 46.9918 35.8284 46.9918 33.6687Z" stroke="white" stroke-width="3.11" stroke-linecap="round" stroke-linejoin="round"/>
<path id="Vector_2" d="M24.4958 8.36105V42.105" stroke="white" stroke-width="3.11" stroke-linecap="round" stroke-linejoin="round"/>
<path id="Vector_3" d="M14.9354 15.1098H9.87378" stroke="white" stroke-width="3.11" stroke-linecap="round" stroke-linejoin="round"/>
<path id="Vector_4" d="M16.6226 21.8586H9.87378" stroke="white" stroke-width="3.11" stroke-linecap="round" stroke-linejoin="round"/>
</g>
</g>
</svg>
