<svg width="45" height="46" viewBox="0 0 45 46" fill="none" xmlns="http://www.w3.org/2000/svg">
<g id="Group">
<path id="Vector" d="M28.6751 14.684C29.1371 15.608 29.4101 16.658 29.4101 17.7709C29.3891 21.488 26.4701 24.533 22.7741 24.638C22.6271 24.617 22.4381 24.617 22.2701 24.638C18.5741 24.512 15.634 21.488 15.634 17.7709C15.634 13.97 18.7001 10.883 22.5221 10.883" stroke="white" stroke-width="3.31" stroke-linecap="round" stroke-linejoin="round"/>
<path id="Vector_2" d="M36.6535 38.498C32.9155 41.921 27.9595 44 22.4995 44C17.0395 44 12.0835 41.921 8.34546 38.498C8.55546 36.524 9.81546 34.592 12.0625 33.08C17.8165 29.2581 27.2245 29.2581 32.9365 33.08C35.1835 34.592 36.4435 36.524 36.6535 38.498Z" stroke="white" stroke-width="3.31" stroke-linecap="round" stroke-linejoin="round"/>
<path id="Vector_3" d="M5.7 10.4C3.075 13.9069 1.5 18.2749 1.5 22.9999C1.5 34.5919 10.908 43.9998 22.5 43.9998C34.092 43.9998 43.5 34.5919 43.5 22.9999C43.5 11.408 34.092 2 22.5 2C19.497 2 16.62 2.63 14.037 3.78499" stroke="white" stroke-width="2.31" stroke-linecap="round" stroke-linejoin="round"/>
</g>
</svg>
